<svg width="188" height="132" viewBox="0 0 188 132" fill="none" xmlns="http://www.w3.org/2000/svg">
<path fill-rule="evenodd" clip-rule="evenodd" d="M144.745 30.2316C160.073 38.034 173.833 49.1858 185.649 63.3808C187.149 65.1829 187.149 67.7972 185.649 69.5974C173.833 83.7925 160.071 94.9461 144.745 102.747C128.799 110.863 111.856 114.978 94.3868 114.978C76.9176 114.978 59.9745 110.863 44.0287 102.747C28.7007 94.9442 14.9401 83.7925 3.12471 69.5974C1.6251 67.7953 1.6251 65.1811 3.12471 63.3808C14.9401 49.1858 28.7007 38.034 44.0287 30.2316C59.9745 22.1157 76.9176 18 94.3868 18C111.856 18 128.799 22.1157 144.745 30.2316ZM13.259 66.49C35.3976 91.527 64.0627 105.262 94.3868 105.262V105.26C124.711 105.26 153.376 91.5252 175.515 66.4882C153.376 41.4512 124.711 27.7163 94.3868 27.7163C64.0627 27.7163 35.3976 41.4512 13.259 66.49ZM128.003 66.488C128.003 85.0538 112.953 100.104 94.3869 100.104C75.8211 100.104 60.7705 85.0538 60.7705 66.488C60.7705 47.9222 75.8211 32.8716 94.3869 32.8716C112.953 32.8716 128.003 47.9222 128.003 66.488Z" fill="#1A1A1A"/>
</svg>
