<svg width="188" height="132" viewBox="0 0 188 132" fill="none" xmlns="http://www.w3.org/2000/svg">
<path fill-rule="evenodd" clip-rule="evenodd" d="M158.344 2.42308C156.447 0.525641 153.37 0.525641 151.473 2.42308L130.024 23.8724C118.483 19.9033 106.507 17.8904 94.3868 17.8904C76.9176 17.8904 59.9745 22.0061 44.0287 30.122C28.7025 37.9226 14.9401 49.0762 3.12471 63.2712C1.6251 65.0715 1.6251 67.6857 3.12471 69.4878C16.0951 85.0706 31.8246 97.2362 48.9217 104.974L30.4295 123.467C28.532 125.364 28.532 128.44 30.4295 130.338C31.3773 131.286 32.6221 131.76 33.865 131.76C35.108 131.76 36.3509 131.286 37.3006 130.338L158.344 9.29418C160.242 7.39674 160.242 4.32051 158.344 2.42308ZM13.2609 66.3786C35.3995 41.3416 64.0627 27.6086 94.3868 27.6086C103.835 27.6086 113.191 28.9524 122.289 31.6088L114.472 39.4258C108.868 35.2423 101.918 32.7637 94.3868 32.7637C75.8213 32.7637 60.7701 47.8149 60.7701 66.3804C60.7701 73.9115 63.2487 80.8614 67.4322 86.4657L56.3134 97.5845C40.408 91.0544 25.6318 80.3426 13.2609 66.3786ZM185.649 63.2712C175.295 50.8306 163.364 40.6725 150.19 33.079C147.865 31.7389 144.895 32.5382 143.555 34.8628C142.215 37.1874 143.014 40.1573 145.339 41.4974C156.405 47.8754 166.541 56.2351 175.515 66.3786C153.376 91.4156 124.711 105.15 94.3869 105.15C88.7038 105.15 82.9913 104.659 77.4071 103.689C74.7636 103.229 72.2483 105.002 71.79 107.646C71.3317 110.289 73.1026 112.804 75.7462 113.263C81.8785 114.328 88.1501 114.867 94.3887 114.867C111.858 114.867 128.801 110.751 144.747 102.635C160.073 94.8346 173.835 83.681 185.649 69.486C187.149 67.6857 187.149 65.0715 185.649 63.2694V63.2712ZM128.002 66.3803C128.002 84.9457 112.951 99.9967 94.3861 99.9967L94.3842 99.9985C91.5207 99.9985 88.7415 99.6392 86.0869 98.9646L126.968 58.083C127.643 60.7376 128.002 63.5168 128.002 66.3803Z" fill="#1A1A1A"/>
</svg>
